<?xml version="1.0" standalone="no"?>
<!DOCTYPE svg PUBLIC "-//W3C//DTD SVG 20010904//EN"
 "http://www.w3.org/TR/2001/REC-SVG-20010904/DTD/svg10.dtd">
<svg version="1.0" xmlns="http://www.w3.org/2000/svg"
 width="260.000000pt" height="260.000000pt" viewBox="0 0 260.000000 260.000000"
 preserveAspectRatio="xMidYMid meet">
<metadata>
Created by potrace 1.11, written by Peter Selinger 2001-2013
</metadata>
<g transform="translate(0.000000,260.000000) scale(0.100000,-0.100000)"
fill="#000000" stroke="none">
<path d="M0 1300 l0 -1300 210 0 210 0 0 26 c0 14 -16 46 -35 70 -19 25 -41
71 -50 102 -9 31 -27 82 -40 113 -33 74 -49 153 -41 203 11 72 37 135 66 165
27 26 35 28 137 34 82 4 125 12 177 31 42 16 89 26 122 26 l53 0 3 47 c2 27
-5 80 -15 118 -25 97 -33 249 -17 327 21 108 79 201 167 267 71 53 99 56 224
27 95 -23 107 -28 139 -64 65 -73 95 -139 95 -212 0 -36 -6 -86 -14 -112 -9
-33 -10 -55 -4 -75 14 -39 -14 -127 -50 -156 -26 -22 -60 -95 -76 -166 l-8
-39 51 -6 c28 -3 102 -6 164 -6 135 0 159 -8 239 -82 42 -39 73 -58 106 -66
51 -13 81 -45 178 -188 53 -79 51 -78 268 -155 113 -40 126 -47 148 -81 13
-21 30 -38 38 -38 37 0 121 -41 137 -67 17 -27 17 39 18 1265 l0 1292 -1300 0
-1300 0 0 -1300z m2212 949 c130 -28 255 -114 304 -211 33 -65 33 -154 0 -224
-26 -55 -48 -77 -296 -278 l-155 -127 -3 89 -3 89 -62 6 c-128 12 -276 87
-337 171 -135 182 -23 399 245 477 70 21 228 25 307 8z"/>
</g>
</svg>
